<?xml version="1.0" encoding="UTF-8"?>
<svg width="25px" height="18px" viewBox="0 0 25 18" version="1.1" xmlns="http://www.w3.org/2000/svg" xmlns:xlink="http://www.w3.org/1999/xlink">
    <title>929574</title>
    <g id="Page-1" stroke="none" stroke-width="1" fill="none" fill-rule="evenodd">
        <g id="Desktop-HD" transform="translate(-344.000000, -677.000000)" fill="#F5F5F5" fill-rule="nonzero">
            <g id="clouds-group" transform="translate(321.000000, 665.000000)">
                <g id="929574" transform="translate(23.000000, 12.000000)">
                    <path d="M21.9130371,7.75347222 C22.6582031,3.70669444 19.5266113,0 15.4296875,0 C13.0622559,0 10.9437012,1.25032639 9.77626953,3.18568056 C8.18388672,2.67341667 6.54658203,2.89172917 5.19765625,3.81621528 C3.84946289,4.74016667 3.04428711,6.20306944 2.97910156,7.80310417 C1.17763672,8.64801389 0,10.4337917 0,12.3958333 C0,12.7318819 0.0331054688,13.0680278 0.0983398437,13.3950347 C0.572900391,15.7735764 2.68769531,17.5 5.12695312,17.5 L19.8242188,17.5 C22.678125,17.5 25,15.2102708 25,12.3958333 C25,10.3875139 23.776123,8.57465972 21.9130371,7.75347222 Z M19.8242188,16.0416667 L5.12695312,16.0416667 C3.125,16.0416667 1.46484375,14.4260764 1.46484375,12.3958333 C1.46484375,10.8767361 2.46762695,9.5025 3.96015625,8.97628472 L4.48017578,8.79292361 L4.44672852,8.2446875 C4.36806641,6.95649306 4.95932617,5.75001389 6.02832031,5.01739583 C7.15874023,4.24263194 8.54550781,4.18911111 9.81489258,4.76213889 L10.4746582,5.05997917 L10.7810547,4.40645139 C11.6207031,2.61556944 13.4454102,1.45833333 15.4296875,1.45833333 C18.2566895,1.45833333 20.5566406,3.7480625 20.5566406,6.5625 C20.5566406,7.39501389 20.3802246,7.8990625 20.1851563,8.56644444 C20.7312988,8.84868056 20.8196777,8.90098611 21.0035645,8.96369444 C22.5177734,9.48004167 23.5351562,10.8593333 23.5351562,12.3958333 C23.5351562,14.4061458 21.8704102,16.0416667 19.8242188,16.0416667 Z" id="Shape"></path>
                </g>
            </g>
        </g>
    </g>
</svg>