<?xml version="1.0" encoding="UTF-8"?>
<svg width="25px" height="25px" viewBox="0 0 25 25" version="1.1" xmlns="http://www.w3.org/2000/svg" xmlns:xlink="http://www.w3.org/1999/xlink">
    <title>481453</title>
    <g id="Page-1" stroke="none" stroke-width="1" fill="none" fill-rule="evenodd">
        <g id="Desktop-HD" transform="translate(-344.000000, -562.000000)" fill="#FFFFFF" fill-rule="nonzero">
            <g id="humidity-group" transform="translate(321.000000, 553.000000)">
                <g id="481453" transform="translate(23.000000, 9.000000)">
                    <path d="M15.9744005,0.135057275 C15.7760126,-0.0450190916 15.4739142,-0.0450190916 15.2755263,0.135057275 C15.048867,0.33944981 9.86104546,5.08090741 7.45192402,10.5763127 C7.19225706,10.4851515 6.89333245,10.4168416 6.50685935,10.4168416 C5.59490002,10.4168416 5.10559529,10.7571215 4.71243276,11.0307517 C4.36912356,11.2698118 4.09803087,11.4584819 3.51258394,11.4584819 C2.92816239,11.4584819 2.6570697,11.269763 2.31424877,11.0312399 C1.92157453,10.7576098 1.4322698,10.4168416 0.520847575,10.4168416 C0.232958074,10.4168416 0,10.6497983 0,10.9376862 C0,11.225574 0.232958074,11.4585307 0.520847575,11.4585307 C1.10526912,11.4585307 1.37636181,11.6472495 1.71918274,11.8857726 C2.11185698,12.1594027 2.60116171,12.5001709 3.51258394,12.5001709 C4.42454326,12.5001709 4.91433627,12.1594027 5.3074988,11.8857726 C5.650808,11.6472495 5.9219007,11.4585307 6.50685935,11.4585307 C7.09279456,11.4585307 7.36442436,11.6472495 7.70822184,11.8862609 C8.10138437,12.159891 8.59117738,12.5001709 9.50367381,12.5001709 C10.4156331,12.5001709 10.9054262,12.159891 11.2991258,11.8862609 C11.642435,11.6472007 11.9140648,11.4585307 12.5,11.4585307 C12.7878895,11.4585307 13.0208476,11.225574 13.0208476,10.9376862 C13.0208476,10.6497983 12.7878895,10.4168416 12.5,10.4168416 C11.5875524,10.4168416 11.0977106,10.7571215 10.7040597,11.0307517 C10.3607505,11.2698118 10.0891207,11.4584819 9.50372264,11.4584819 C8.95645915,11.4584819 8.6822903,11.2915401 8.36886379,11.0749895 C10.3278893,6.5505708 14.406975,2.40974209 15.6250366,1.23670667 C17.2470518,2.79967969 23.9583537,9.62847043 23.9583537,15.6250916 C23.9583537,20.2199686 20.2199405,23.9583598 15.6250366,23.9583598 C13.5509725,23.9583598 11.5884801,23.1858087 10.0693943,21.8217596 C10.6329663,21.717366 10.996832,21.4713235 11.2991746,21.2611205 C11.6424838,21.0220603 11.9141136,20.8333903 12.5000488,20.8333903 C12.7879383,20.8333903 13.0208964,20.6004336 13.0208964,20.3125458 C13.0208964,20.024658 12.7879383,19.7917013 12.5000488,19.7917013 C11.5876012,19.7917013 11.0977594,20.1319811 10.7041086,20.4056113 C10.3607994,20.6446714 10.0891696,20.8333415 9.50377147,20.8333415 C8.91783626,20.8333415 8.64620646,20.6446226 8.30289725,20.4056113 C7.90919762,20.1319811 7.41940461,19.7917013 6.506957,19.7917013 C5.59499768,19.7917013 5.10569295,20.1319811 4.71253042,20.4056113 C4.36922121,20.6446714 4.09812852,20.8333415 3.51268159,20.8333415 C2.92826005,20.8333415 2.65716735,20.6446226 2.31434643,20.4060995 C1.92167218,20.1324694 1.43236745,19.7917013 0.520945231,19.7917013 C0.23305573,19.7917013 0,20.024658 0,20.3125458 C0,20.6004336 0.23305573,20.8333903 0.520945231,20.8333903 C1.10536678,20.8333903 1.37645947,21.0221092 1.71928039,21.2606322 C2.11195464,21.5342624 2.60125937,21.8750305 3.51268159,21.8750305 C4.42464092,21.8750305 4.91443393,21.5342624 5.30759645,21.2606322 C5.65090566,21.0221092 5.92199835,20.8333903 6.506957,20.8333903 C7.09289222,20.8333903 7.36452201,21.0221092 7.7083195,21.2611205 C7.92047687,21.4087265 8.16798567,21.5714202 8.48766216,21.6939776 C10.2747646,23.7933712 12.8653306,25 15.6250366,25 C20.7942059,25 25,20.7942305 25,15.6250916 C25,8.38082636 16.3426608,0.468208318 15.9744005,0.135057275 Z" id="Path"></path>
                    <path d="M0.55342551,17.5000251 C1.17440141,17.5000251 1.46245039,17.6941363 1.82671405,17.9394748 C2.24394926,18.2209235 2.76385898,18.5714286 3.73228878,18.5714286 C4.03818517,18.5714286 4.28571429,18.3318155 4.28571429,18.0357017 C4.28571429,17.739588 4.03818517,17.4999749 3.73228878,17.4999749 C3.11131287,17.4999749 2.8232639,17.3058637 2.45900023,17.0605252 C2.04176503,16.7790765 1.5218553,16.4285714 0.55342551,16.4285714 C0.247529119,16.4285714 0,16.6681845 0,16.9642983 C0,17.260412 0.247529119,17.5000251 0.55342551,17.5000251 Z" id="Path"></path>
                    <path d="M6.94122558,16.4285714 C6.65786485,16.4285714 6.42857143,16.6681789 6.42857143,16.9642857 C6.42857143,17.2603925 6.65786485,17.5 6.94122558,17.5 C7.51794348,17.5 7.78530028,17.6941067 8.12320891,17.9399416 C8.51071528,18.2213837 8.99280338,18.5713783 9.89089733,18.5713783 C10.7885107,18.5713783 11.2705988,18.2213837 11.6581052,17.9399416 C11.9960138,17.6940564 12.2633706,17.5 12.8400885,17.5 C13.4263222,17.5 13.7246776,17.6993297 14.1016589,17.9514926 C14.5366964,18.2418239 15.0298383,18.5714286 15.9159173,18.5714286 C16.199278,18.5714286 16.4285714,18.3318211 16.4285714,18.0357143 C16.4285714,17.7396075 16.199278,17.5 15.9159173,17.5 C15.3296835,17.5 15.0313281,17.3006703 14.6543469,17.0485074 C14.2193093,16.7581761 13.7261675,16.4285714 12.8400885,16.4285714 C11.9419945,16.4285714 11.4598584,16.7785661 11.0724001,17.0600082 C10.7344914,17.3058933 10.4671346,17.4999498 9.89094539,17.4999498 C9.31422749,17.4999498 9.04687069,17.3058431 8.70848146,17.0600082 C8.32145569,16.7785158 7.83936759,16.4285714 6.94122558,16.4285714 Z" id="Path"></path>
                    <path d="M6.61347539,13.5714286 C5.68657345,13.5714286 5.18925137,13.9214314 4.78964681,14.2028801 C4.44071242,14.448771 4.16517783,14.642832 3.57013824,14.642832 C2.97614085,14.642832 2.70060626,14.4487208 2.35216815,14.2033823 C1.95305986,13.9219336 1.45573779,13.5714286 0.529381754,13.5714286 C0.236775134,13.5714286 0,13.8110417 0,14.1071554 C0,14.4032692 0.236775134,14.6428823 0.529381754,14.6428823 C1.12337915,14.6428823 1.39891374,14.8369935 1.74735185,15.0823319 C2.14646013,15.3637806 2.64378221,15.7142857 3.57013824,15.7142857 C4.49704019,15.7142857 4.99485854,15.3637806 5.3944631,15.0823319 C5.74339749,14.8369935 6.01893209,14.6428823 6.61347539,14.6428823 C6.90608201,14.6428823 7.14285714,14.4032692 7.14285714,14.1071554 C7.14285714,13.8109914 6.90608201,13.5714286 6.61347539,13.5714286 Z" id="Path"></path>
                    <path d="M11.5964229,15.0828342 C11.9389107,14.8369432 12.2098906,14.6428823 12.7944238,14.6428823 C13.377447,14.6428823 13.6478911,14.8369935 13.9898918,15.0823319 C14.3816264,15.3637806 14.8697604,15.7142857 15.7790019,15.7142857 C16.6887792,15.7142857 17.1774003,15.3637806 17.5696221,15.0823319 C17.9121099,14.8369935 18.1825539,14.6428823 18.7661129,14.6428823 C19.0533136,14.6428823 19.2857143,14.4032692 19.2857143,14.1071554 C19.2857143,13.8110417 19.0533136,13.5714286 18.7661129,13.5714286 C17.8563356,13.5714286 17.3682017,13.9214314 16.9759799,14.2028801 C16.6334921,14.448771 16.363048,14.642832 15.7790019,14.642832 C15.1959787,14.642832 14.9255346,14.4487208 14.583534,14.2033823 C14.1917993,13.9219336 13.7036653,13.5714286 12.7944238,13.5714286 C11.8841594,13.5714286 11.3954896,13.9214314 11.0027807,14.2028801 C10.6602929,14.448771 10.3893131,14.642832 9.80531563,14.642832 C9.51811496,14.642832 9.28571429,14.8824451 9.28571429,15.1785589 C9.28571429,15.4746726 9.51811496,15.7142857 9.80531563,15.7142857 C10.7150442,15.7142857 11.2036653,15.3642829 11.5964229,15.0828342 Z" id="Path"></path>
                </g>
            </g>
        </g>
    </g>
</svg>