<?xml version="1.0" encoding="UTF-8"?>
<svg width="25px" height="29px" viewBox="0 0 25 29" version="1.1" xmlns="http://www.w3.org/2000/svg" xmlns:xlink="http://www.w3.org/1999/xlink">
    <title>2938030</title>
    <g id="Page-1" stroke="none" stroke-width="1" fill="none" fill-rule="evenodd">
        <g id="Desktop-HD" transform="translate(-344.000000, -617.000000)" fill="#F5F5F5" fill-rule="nonzero">
            <g id="pressure-group" transform="translate(321.000000, 609.000000)">
                <g id="2938030" transform="translate(23.000000, 8.000000)">
                    <path d="M14.7141707,3.67901786 C14.8977211,3.32991071 15.0022019,2.93264509 15.0022019,2.51116071 C15.0022019,1.1265067 13.8797141,0 12.5,0 C11.1202859,0 9.99779806,1.1265067 9.99779806,2.51116071 C9.99779806,2.93264509 10.1022789,3.32991071 10.2858849,3.67901786 C4.44574559,4.73091518 0,9.86757812 0,16.0266741 C0,22.9438616 5.60749015,28.5714286 12.5,28.5714286 C19.3925099,28.5714286 25,22.9438616 25,16.0266741 C25,9.86757812 20.5542544,4.73097098 14.7141707,3.67901786 L14.7141707,3.67901786 Z M12.5,1.67410714 C12.9599047,1.67410714 13.3340673,2.04960938 13.3340673,2.51116071 C13.3340673,2.97271205 12.9599047,3.34821429 12.5,3.34821429 C12.0400953,3.34821429 11.6659327,2.97271205 11.6659327,2.51116071 C11.6659327,2.04960938 12.0400953,1.67410714 12.5,1.67410714 Z M12.5,26.8973214 C6.52729958,26.8973214 1.66813463,22.0207589 1.66813463,16.0266741 C1.66813463,10.0325893 6.52729958,5.15602679 12.5,5.15602679 C18.4727004,5.15602679 23.3318654,10.0325893 23.3318654,16.0266741 C23.3318654,22.0207589 18.4727004,26.8973214 12.5,26.8973214 Z" id="Shape"></path>
                    <path d="M19.4512596,9.86414151 C19.4394556,9.85093381 19.428045,9.83744865 19.4152292,9.8247959 C19.4016827,9.81142172 19.3873493,9.7994904 19.3731282,9.78722611 C17.6951592,8.15330121 15.3928701,7.14285714 12.8571425,7.14285714 C10.3105664,7.14285714 8.00040799,8.16040451 6.32114611,9.80503985 C6.31383887,9.81175469 6.30613815,9.8177481 6.29905574,9.8247959 C6.29309752,9.83067832 6.28809487,9.83706019 6.28236149,9.8429981 C4.60798985,11.502062 3.57142857,13.7889353 3.57142857,16.3104395 C3.57142857,16.770156 3.94893226,17.1428571 4.41457261,17.1428571 L5.37013585,17.1428571 C5.8357762,17.1428571 6.21327989,16.770156 6.21327989,16.3104395 C6.21327989,15.8507229 5.8357762,15.4780218 5.37013585,15.4780218 L5.30476408,15.4780218 C5.46749088,14.0294486 6.04948511,12.7040731 6.9280974,11.6230401 L6.97475137,11.6691005 C7.1393893,11.8316439 7.35517796,11.9129434 7.57091041,11.9129434 C7.78664287,11.9129434 8.00248774,11.8316994 8.16706946,11.6691005 C8.49634531,11.3440136 8.49634531,10.8169823 8.16706946,10.4918954 L8.1216521,10.4470559 C9.21442298,9.58505961 10.5522677,9.01424306 12.0139984,8.85419689 L12.0139984,8.91868151 C12.0139984,9.37839805 12.3915021,9.75109919 12.8571425,9.75109919 C13.3227828,9.75109919 13.7002865,9.37839805 13.7002865,8.91868151 L13.7002865,8.85419689 C15.1614551,9.01435405 16.4991875,9.58544807 17.5920145,10.4476108 L17.5472155,10.4918399 C17.2179396,10.8169268 17.2179396,11.3439582 17.5472155,11.669045 C17.7118534,11.8315884 17.9276421,11.9128879 18.1433745,11.9128879 C18.359107,11.9128879 18.5749519,11.8316439 18.7395336,11.669045 L18.7855692,11.623595 C19.6621018,12.7019089 20.2436463,14.0231777 20.4081718,15.4670339 L20.3330196,15.4670339 C19.8673793,15.4670339 19.4898756,15.839735 19.4898756,16.2994516 C19.4898756,16.7591681 19.8673793,17.1318692 20.3330196,17.1318692 C20.3330196,17.1318692 21.3004431,17.1317582 21.3008365,17.1317582 C21.7664769,17.1311478 22.1434747,16.7579472 22.1428571,16.2982307 C22.1394276,13.792487 21.1111291,11.5189878 19.4512596,9.86414151 L19.4512596,9.86414151 Z" id="Path"></path>
                    <path d="M16.1769477,12.395187 C15.8415067,12.0587472 15.297539,12.0587472 14.9620407,12.395187 L11.3745916,15.9927043 C10.9774116,15.8024303 10.5340705,15.7145585 10.0850022,15.7461464 C9.61170793,15.779285 9.25478999,16.1909041 9.28783582,16.6655266 C9.32088166,17.1401492 9.73094784,17.4982986 10.204643,17.4649303 C10.4528018,17.4474133 10.6959779,17.5387885 10.8718596,17.7151639 C11.0450496,17.8888399 11.1362263,18.1290802 11.1220229,18.3742598 C11.0945324,18.8492269 11.456204,19.2566534 11.9298418,19.284221 C11.9467943,19.2852548 11.9636322,19.2857143 11.9804129,19.2857143 C12.4320584,19.2857143 12.8107396,18.9321021 12.8372565,18.474135 C12.8626851,18.0346611 12.7744866,17.6008157 12.5892122,17.211423 L16.1769477,13.6135611 C16.512446,13.2770638 16.512446,12.7316269 16.1769477,12.395187 L16.1769477,12.395187 Z" id="Path"></path>
                    <path d="M17.7227723,22.1428571 L7.99151344,22.1428571 C7.52282885,22.1428571 7.14285714,22.4626667 7.14285714,22.8571429 C7.14285714,23.251619 7.52282885,23.5714286 7.99151344,23.5714286 L17.7227723,23.5714286 C18.1914569,23.5714286 18.5714286,23.251619 18.5714286,22.8571429 C18.5714286,22.4626667 18.1914569,22.1428571 17.7227723,22.1428571 Z" id="Path"></path>
                </g>
            </g>
        </g>
    </g>
</svg>