<?xml version="1.0" encoding="UTF-8"?>
<svg width="14px" height="14px" viewBox="0 0 14 14" version="1.1" xmlns="http://www.w3.org/2000/svg" xmlns:xlink="http://www.w3.org/1999/xlink">
    <title>93642</title>
    <g id="Page-1" stroke="none" stroke-width="1" fill="none" fill-rule="evenodd">
        <g id="Desktop-HD" transform="translate(-218.000000, -694.000000)" fill="#F5F5F5" fill-rule="nonzero">
            <g id="93642" transform="translate(218.000000, 694.000000)">
                <path d="M13.840508,13.0708228 L10.4238351,9.65421142 C11.2731045,8.63293659 11.7847563,7.32150707 11.7847563,5.89257869 C11.7847563,2.64339775 9.14143971,0 5.89241445,0 C2.64331661,0 0,2.64339775 0,5.89257869 C0,9.14154191 2.64331661,11.7847219 5.89241445,11.7847219 C7.32126562,11.7847219 8.63276347,11.273141 9.65403499,10.4238689 L13.0707804,13.8405528 C13.1770298,13.9468751 13.3163733,14 13.4556442,14 C13.5949151,14 13.7342586,13.9468751 13.8405805,13.8405528 C14.0531519,13.6279808 14.0531519,13.2833948 13.840508,13.0708228 Z M1.08862087,5.89257869 C1.08862087,3.24366524 3.24358216,1.08862439 5.89241445,1.08862439 C8.54117417,1.08862439 10.6960629,3.24366524 10.6960629,5.89257869 C10.6960629,8.54127442 8.54117417,10.6960975 5.89241445,10.6960975 C3.24358216,10.6960975 1.08862087,8.54127442 1.08862087,5.89257869 Z" id="Shape"></path>
            </g>
        </g>
    </g>
</svg>