<?xml version="1.0" encoding="UTF-8"?>
<svg width="25px" height="24px" viewBox="0 0 25 24" version="1.1" xmlns="http://www.w3.org/2000/svg" xmlns:xlink="http://www.w3.org/1999/xlink">
    <title>2294976</title>
    <g id="Page-1" stroke="none" stroke-width="1" fill="none" fill-rule="evenodd">
        <g id="Desktop-HD" transform="translate(-344.000000, -787.000000)" fill="#F5F5F5" fill-rule="nonzero">
            <g id="sunrise-group" transform="translate(321.000000, 777.000000)">
                <g id="2294976" transform="translate(23.000000, 10.000000)">
                    <polygon id="Path" points="11.9047619 4.16666667 13.0952381 4.16666667 13.0952381 9.52380952 11.9047619 9.52380952"></polygon>
                    <path d="M20.1308105,18.1893119 C19.7608398,14.3346867 16.4799805,11.3095238 12.5,11.3095238 C8.52001953,11.3095238 5.23916016,14.3347352 4.86918945,18.1893603 L0,18.1893603 L0,19.6428571 L25,19.6428571 L25,18.1893603 L20.1308105,18.1893603 L20.1308105,18.1893119 Z M12.5,12.7630206 C15.671582,12.7630206 18.2946777,15.1376953 18.6581543,18.1893603 L6.3418457,18.1893603 C6.70532227,15.1376953 9.32841797,12.7630206 12.5,12.7630206 L12.5,12.7630206 Z" id="Shape"></path>
                    <polygon id="Path" points="2.97619048 21.4285714 22.0238095 21.4285714 22.0238095 22.6190476 2.97619048 22.6190476"></polygon>
                    <polygon id="Path" transform="translate(2.388193, 15.151635) rotate(-69.336697) translate(-2.388193, -15.151635) " points="1.6556525 13.4663942 3.11890596 13.4671887 3.12073324 16.8368764 1.65747978 16.836082"></polygon>
                    <polygon id="Path" transform="translate(8.336764, 8.999028) rotate(-22.694756) translate(-8.336764, -8.999028) " points="7.60319707 7.31558119 9.06835994 7.31643775 9.07033008 10.6824741 7.60516721 10.6816176"></polygon>
                    <polygon id="Path" transform="translate(16.681082, 8.998880) rotate(-67.305244) translate(-16.681082, -8.998880) " points="14.9976354 8.26531369 18.3636718 8.26728383 18.3645284 9.73244669 14.998492 9.73047656"></polygon>
                    <polygon id="Path" transform="translate(22.626932, 15.153096) rotate(-20.663303) translate(-22.626932, -15.153096) " points="20.9416911 14.420556 24.3113788 14.4223833 24.3121733 15.8856368 20.9424855 15.8838095"></polygon>
                    <polygon id="Path" transform="translate(4.125618, 10.600878) rotate(-45.000000) translate(-4.125618, -10.600878) " points="3.39168335 7.89294966 4.85510341 7.89415215 4.85955259 13.3088064 3.39613253 13.3076039"></polygon>
                    <polygon id="Path" transform="translate(20.869193, 10.602711) rotate(-45.000000) translate(-20.869193, -10.602711) " points="18.1612642 9.86877593 23.5759184 9.87322511 23.5771209 11.3366452 18.1624667 11.332196"></polygon>
                    <polygon id="Path" points="21.6209307 2.33501905 21.6209307 5.95238095 23.0368407 5.95238095 23.0368407 2.33501905 23.99881 3.3515371 25 2.29357432 22.8295043 0 21.8283143 0 19.6428571 2.30928442 20.6440471 3.36724719"></polygon>
                </g>
            </g>
        </g>
    </g>
</svg>