<?xml version="1.0" encoding="UTF-8"?>
<svg width="25px" height="25px" viewBox="0 0 25 25" version="1.1" xmlns="http://www.w3.org/2000/svg" xmlns:xlink="http://www.w3.org/1999/xlink">
    <title>2937987</title>
    <g id="Page-1" stroke="none" stroke-width="1" fill="none" fill-rule="evenodd">
        <g id="Desktop-HD" transform="translate(-344.000000, -730.000000)" fill="#F5F5F5" fill-rule="nonzero">
            <g id="sunset-group" transform="translate(321.000000, 721.000000)">
                <g id="2937987" transform="translate(23.000000, 9.000000)">
                    <path d="M12.8571429,4.28571429 C13.251619,4.28571429 13.5714286,3.93316897 13.5714286,3.49831409 L13.5714286,0.787400197 C13.5714286,0.352545315 13.251619,0 12.8571429,0 C12.4626667,0 12.1428571,0.352545315 12.1428571,0.787400197 L12.1428571,3.49831409 C12.1428571,3.93316897 12.4626667,4.28571429 12.8571429,4.28571429 Z" id="Path"></path>
                    <path d="M24.2125998,12.1428571 L21.5016859,12.1428571 C21.066831,12.1428571 20.7142857,12.4626667 20.7142857,12.8571429 C20.7142857,13.251619 21.066831,13.5714286 21.5016859,13.5714286 L24.2125998,13.5714286 C24.6474547,13.5714286 25,13.251619 25,12.8571429 C25,12.4626667 24.6474547,12.1428571 24.2125998,12.1428571 Z" id="Path"></path>
                    <path d="M3.49831409,13.5714286 C3.93316897,13.5714286 4.28571429,13.251619 4.28571429,12.8571429 C4.28571429,12.4626667 3.93316897,12.1428571 3.49831409,12.1428571 L0.787400197,12.1428571 C0.352545315,12.1428571 0,12.4626667 0,12.8571429 C0,13.251619 0.352545315,13.5714286 0.787400197,13.5714286 L3.49831409,13.5714286 Z" id="Path"></path>
                    <path d="M18.6625492,7.14285714 C18.8686727,7.14285714 19.0747961,7.06425269 19.2320062,6.90693641 L21.1926758,4.94628159 C21.5072033,4.63175641 21.5072033,4.12184763 21.1926758,3.80732246 C20.8782019,3.49279728 20.3682356,3.49279728 20.0537081,3.80732246 L18.0930385,5.76797728 C17.778511,6.08250246 17.778511,6.59241123 18.0930385,6.90693641 C18.250356,7.06425269 18.4564794,7.14285714 18.6625492,7.14285714 L18.6625492,7.14285714 Z" id="Path"></path>
                    <path d="M5.76804748,6.90693641 C5.92531125,7.064199 6.13143471,7.14285714 6.33750448,7.14285714 C6.54357425,7.14285714 6.74975141,7.06425269 6.90696149,6.90693641 C7.22148903,6.59241123 7.22148903,6.08250246 6.90696149,5.76797728 L4.94629193,3.80732246 C4.63181807,3.49279728 4.12185177,3.49279728 3.80732423,3.80732246 C3.49279669,4.12184763 3.49279669,4.63175641 3.80732423,4.94628159 L5.76804748,6.90693641 Z" id="Path"></path>
                    <path d="M16.1119682,4.2327609 C16.1929513,4.26870669 16.276773,4.28571429 16.3593044,4.28571429 C16.6121455,4.28571429 16.8521704,4.12579691 16.9552594,3.8606163 L17.8075822,1.6685669 C17.9443031,1.31692334 17.7884439,0.913383629 17.4594364,0.767256195 C17.130343,0.621128762 16.7528661,0.787711278 16.6161452,1.13935483 L15.7638224,3.33140424 C15.6271446,3.68309376 15.7830038,4.08663347 16.1119682,4.2327609 Z" id="Path"></path>
                    <path d="M1.13935827,8.38384507 L3.33142539,9.23616954 C3.41798097,9.26980148 3.50757036,9.28571429 3.59578074,9.28571429 C3.86601985,9.28571429 4.12256084,9.13609087 4.23274338,8.88798007 C4.37887199,8.55897199 4.21228813,8.18140833 3.86064173,8.04468719 L1.66857461,7.19240573 C1.31692821,7.0557276 0.913385238,7.2115011 0.767256624,7.54055219 C0.621128009,7.86956028 0.787711872,8.24712393 1.13935827,8.38384507 Z" id="Path"></path>
                    <path d="M20.7666084,8.88571982 C20.8763568,9.13506982 21.133156,9.28571429 21.4038288,9.28571429 C21.4914345,9.28571429 21.5805103,9.26993864 21.6665082,9.23662014 L23.8593622,8.38719224 C24.2111633,8.25094412 24.3786111,7.87288901 24.2333978,7.54285047 C24.0881386,7.21276884 23.6851614,7.05570204 23.333498,7.19195016 L21.140644,8.04137806 C20.788797,8.17762617 20.6213951,8.55568129 20.7666084,8.88571982 Z" id="Path"></path>
                    <path d="M8.04135942,3.85940107 C8.14433073,4.12515775 8.38527241,4.28571429 8.63923097,4.28571429 C8.721427,4.28571429 8.8050023,4.26890064 8.88568974,4.23338985 C9.21576691,4.08817691 9.37287467,3.68524661 9.23662841,3.33349227 L8.38721201,1.14059772 C8.25092264,0.788797442 7.87282955,0.621396002 7.54288169,0.766608941 C7.21280452,0.911821881 7.05569675,1.31470625 7.19194302,1.66650653 L8.04135942,3.85940107 Z" id="Path"></path>
                    <path d="M23.556701,14.9265688 L18.8913078,14.9265688 C19.1306672,14.2044059 19.2555228,13.4419393 19.2555228,12.6735648 C19.2555228,8.83619826 16.2250147,5.71428571 12.5,5.71428571 C8.77498527,5.71428571 5.74447717,8.83619826 5.74447717,12.6735648 C5.74447717,13.4419393 5.86933284,14.2044559 6.10869219,14.9265688 L1.44329897,14.9265688 C1.04068925,14.9265688 0.714285714,15.2628171 0.714285714,15.6775701 C0.714285714,16.0923231 1.04068925,16.4285714 1.44329897,16.4285714 L23.556701,16.4285714 C23.9593108,16.4285714 24.2857143,16.0923231 24.2857143,15.6775701 C24.2857143,15.2628171 23.9593108,14.9265688 23.556701,14.9265688 Z M12.5,7.21623832 C15.4210589,7.21623832 17.7974963,9.66435247 17.7974963,12.6735147 C17.7974963,13.4519526 17.6353638,14.2226302 17.3259219,14.9265187 L7.67407806,14.9265187 C7.36463623,14.2226302 7.20250368,13.4519526 7.20250368,12.6735147 C7.20250368,9.66435247 9.57894109,7.21623832 12.5,7.21623832 Z" id="Shape"></path>
                    <path d="M22.1325052,17.8571429 L3.58178054,17.8571429 C3.1815873,17.8571429 2.85714286,18.1769524 2.85714286,18.5714286 C2.85714286,18.9659048 3.1815873,19.2857143 3.58178054,19.2857143 L22.1325052,19.2857143 C22.5326984,19.2857143 22.8571429,18.9659048 22.8571429,18.5714286 C22.8571429,18.1769524 22.5326984,17.8571429 22.1325052,17.8571429 Z" id="Path"></path>
                    <path d="M19.2661448,20.7142857 L6.4481409,20.7142857 C6.04285714,20.7142857 5.71428571,21.0340952 5.71428571,21.4285714 C5.71428571,21.8230476 6.04285714,22.1428571 6.4481409,22.1428571 L19.2661448,22.1428571 C19.6714286,22.1428571 20,21.8230476 20,21.4285714 C20,21.0340952 19.6714286,20.7142857 19.2661448,20.7142857 Z" id="Path"></path>
                    <path d="M16.4184219,23.5714286 L8.58157809,23.5714286 C8.18149666,23.5714286 7.85714286,23.8912381 7.85714286,24.2857143 C7.85714286,24.6801905 8.18149666,25 8.58157809,25 L16.4184219,25 C16.8185033,25 17.1428571,24.6801905 17.1428571,24.2857143 C17.1428571,23.8912381 16.8185033,23.5714286 16.4184219,23.5714286 Z" id="Path"></path>
                </g>
            </g>
        </g>
    </g>
</svg>