<?xml version="1.0" encoding="UTF-8"?>
<svg width="25px" height="25px" viewBox="0 0 25 25" version="1.1" xmlns="http://www.w3.org/2000/svg" xmlns:xlink="http://www.w3.org/1999/xlink">
    <title>3084152</title>
    <g id="Page-1" stroke="none" stroke-width="1" fill="none" fill-rule="evenodd">
        <g id="Desktop-HD" transform="translate(-346.000000, -843.000000)" fill="#F5F5F5" fill-rule="nonzero">
            <g id="uvi-group" transform="translate(321.000000, 833.000000)">
                <g id="3084152" transform="translate(25.000000, 10.000000)">
                    <path d="M1.95311798,13.476469 L0.976558992,13.476469 C0.437205461,13.476469 0,13.0392492 0,12.4998779 C0,11.9605067 0.437205461,11.5232868 0.976558992,11.5232868 L1.95311798,11.5232868 C2.49247152,11.5232868 2.92967698,11.9605067 2.92967698,12.4998779 C2.92967698,13.0392492 2.49247152,13.476469 1.95311798,13.476469 Z M18.8394343,4.01432659 L19.3492957,3.18139203 C19.6308865,2.72136879 19.4862581,2.1201793 19.0262988,1.83857926 C18.5662907,1.55693038 17.965121,1.70156352 17.6835302,2.16158677 L17.1736688,2.99452132 C16.892078,3.45454457 17.0367064,4.05573405 17.4966657,4.3373341 C17.6557959,4.43474906 17.8317719,4.48113714 18.0055994,4.48113714 C18.3343091,4.48113714 18.6552553,4.31516548 18.8394343,4.01432659 Z M7.7142301,4.21184214 C8.18126944,3.94215651 8.34127863,3.34487338 8.07160186,2.87776986 L7.58327354,2.03204195 C7.31354795,1.56493843 6.71628447,1.4049728 6.24924513,1.67465844 C5.78220579,1.94434407 5.6221966,2.5416272 5.89187337,3.00873072 L6.38020169,3.85445863 C6.56110924,4.16774906 6.88933072,4.34285184 7.22678068,4.34285184 C7.39250274,4.34285184 7.56042206,4.30061428 7.7142301,4.21184214 L7.7142301,4.21184214 Z M4.15477023,7.80374425 C4.41936889,7.33375978 4.25291441,6.73823452 3.78299422,6.47362716 L2.93206955,5.99446273 C2.46210053,5.7299042 1.86664369,5.89631532 1.6019962,6.36625096 C1.33739754,6.83623544 1.50385202,7.4317607 1.97377221,7.69636806 L2.82469688,8.17553249 C2.97621407,8.26083772 3.14066255,8.30131743 3.30291782,8.30131743 C3.64412753,8.30136625 3.97542517,8.12225944 4.15477023,7.80374425 L4.15477023,7.80374425 Z M13.3300302,1.95313339 L13.3300302,0.976591111 C13.3300302,0.43721984 12.8928248,0 12.3534712,0 C11.8141177,0 11.3769123,0.43721984 11.3769123,0.976591111 L11.3769123,1.95313339 C11.3769123,2.49250466 11.8141177,2.9297245 12.3534712,2.9297245 C12.8928248,2.9297245 13.3300302,2.49250466 13.3300302,1.95313339 Z M2.8919818,18.9456234 L3.74583615,18.4717326 C4.21741649,18.2100062 4.38758189,17.6155551 4.12581526,17.1439593 C3.86409745,16.6723634 3.26966599,16.5022413 2.79808565,16.7639677 L1.9442313,17.2378585 C1.47265096,17.4995849 1.30248556,18.094036 1.56425219,18.5656318 C1.74266952,18.8871256 2.07567614,19.0684786 2.41898545,19.0684786 C2.57928761,19.0684786 2.74188468,19.0289266 2.8919818,18.9456234 L2.8919818,18.9456234 Z M19.0262988,23.1614207 C19.4862581,22.8798207 19.6308865,22.2786312 19.3492957,21.818608 L18.8394343,20.9856734 C18.5578435,20.525699 17.9566249,20.3811147 17.4966657,20.6626659 C17.0367064,20.9442659 16.892078,21.5454554 17.1736688,22.0054787 L17.6835302,22.8384132 C17.8677093,23.139301 18.1886554,23.3052726 18.5173651,23.3052726 C18.6911438,23.3052238 18.8672174,23.2587869 19.0262988,23.1614207 L19.0262988,23.1614207 Z M7.58327354,22.967958 L8.07160186,22.1222301 C8.34127863,21.6551754 8.18131827,21.0578923 7.7142301,20.7881579 C7.24719076,20.5184234 6.64987846,20.6784378 6.38020169,21.1455414 L5.89187337,21.9912693 C5.6221966,22.458324 5.78215696,23.0556071 6.24924513,23.3253416 C6.40305317,23.4141625 6.57092366,23.4564001 6.73664572,23.4564001 C7.07414451,23.4563513 7.40241481,23.2811996 7.58327354,22.967958 L7.58327354,22.967958 Z M13.3300302,24.0234089 L13.3300302,23.0468666 C13.3300302,22.5074953 12.8928248,22.0702755 12.3534712,22.0702755 C11.8141177,22.0702755 11.3769123,22.5074953 11.3769123,23.0468666 L11.3769123,24.0234089 C11.3769123,24.5627802 11.8141177,25 12.3534712,25 C12.8928248,25 13.3300302,24.5627802 13.3300302,24.0234089 Z M18.7226378,17.6177525 C19.0654589,17.201334 19.0057423,16.5858863 18.5893863,16.2431028 C18.1730304,15.9003193 17.5575541,15.9599891 17.2147819,16.3763587 C16.0495517,17.7918787 14.3311009,18.60367 12.5000039,18.60367 C9.13458633,18.60367 6.39660788,15.8656015 6.39660788,12.4998779 C6.39660788,9.13434964 9.13458633,6.39628114 12.5000039,6.39628114 C13.4979496,6.39628114 14.4874968,6.64208912 15.3616636,7.10719064 C15.8377849,7.36042072 16.429189,7.17984902 16.6824596,6.70366319 C16.935779,6.2275262 16.7551156,5.63615145 16.2789454,5.38282372 C15.1233343,4.76805961 13.8166008,4.44309892 12.4999551,4.44309892 C8.05758824,4.44309892 4.44344107,8.05736496 4.44344107,12.5000732 C4.44344107,16.9425862 8.05758824,20.5568523 12.4999551,20.5568523 C14.9169386,20.5568523 17.1850457,19.4855806 18.7226378,17.6177525 Z M14.0136215,16.2146352 C12.263579,16.2146352 10.8398048,14.7986757 10.8398048,13.0582927 L10.8398048,9.61908064 C10.8398048,9.07970937 11.2770103,8.64248953 11.8163638,8.64248953 C12.3557173,8.64248953 12.7929228,9.07970937 12.7929228,9.61908064 L12.7929228,13.0582927 C12.7929228,13.7216911 13.3405282,14.261453 14.0136215,14.261453 C14.6867148,14.261453 15.2343203,13.7216911 15.2343203,13.0582927 L15.2343203,9.61908064 C15.2343203,9.07970937 15.6715257,8.64248953 16.2108793,8.64248953 C16.7502328,8.64248953 17.1874383,9.07970937 17.1874383,9.61908064 L17.1874383,13.0582927 C17.1874383,14.7986757 15.7636641,16.2146352 14.0136215,16.2146352 Z M21.8537301,16.2108753 C22.6937661,16.2013047 23.4286756,15.7217985 23.7716919,14.9594715 C24.2256942,13.9505064 24.6355072,12.2008946 24.989754,9.75927029 C25.0671951,9.22551442 24.6972746,8.72999209 24.1635362,8.65254841 C23.6297979,8.57530006 23.1342919,8.94508628 23.0568508,9.47879332 C22.6481608,12.2959169 22.2514337,13.5782298 21.9905948,14.1579343 C21.9611516,14.2233171 21.9076361,14.2569607 21.8314645,14.2577908 C21.7205763,14.260574 21.6878127,14.1891364 21.6768264,14.1661377 C21.1435276,13.0496987 20.7228259,10.5327793 20.5431391,9.45804076 C20.4542234,8.92604276 19.9510514,8.5669502 19.4189732,8.65581999 C18.8869927,8.74473862 18.5278631,9.24807367 18.6167788,9.78002285 C18.952178,11.7864781 19.3415321,13.80851 19.9144304,15.0079592 C20.2697514,15.7518287 21.0013894,16.2109921 21.8281931,16.2109921 C21.836738,16.2109921 21.8452829,16.2109921 21.8537301,16.2108753 L21.8537301,16.2108753 Z" id="Shape"></path>
                </g>
            </g>
        </g>
    </g>
</svg>