<?xml version="1.0" encoding="UTF-8"?>
<svg width="25px" height="25px" viewBox="0 0 25 25" version="1.1" xmlns="http://www.w3.org/2000/svg" xmlns:xlink="http://www.w3.org/1999/xlink">
    <title>2210318</title>
    <g id="Page-1" stroke="none" stroke-width="1" fill="none" fill-rule="evenodd">
        <g id="Desktop-HD" transform="translate(-346.000000, -898.000000)" fill="#F5F5F5" fill-rule="nonzero">
            <g id="visibility-group" transform="translate(321.000000, 889.000000)">
                <g id="2210317" transform="translate(25.000000, 9.000000)">
                    <path d="M24.8331621,12.3934002 C22.5609607,9.64082222 17.7503328,6.42857143 12.5,6.42857143 C7.23084367,6.42857143 2.42001976,9.66265802 0.166837908,12.3934002 C-0.0556126361,12.6629846 -0.0556126361,13.0512524 0.166837908,13.3208368 C2.49291178,16.1399944 7.31481409,19.2857143 12.5,19.2857143 C17.8694503,19.2857143 22.6595879,15.9539515 24.8331621,13.3208855 C25.0556126,13.0512524 25.0556126,12.6629846 24.8331621,12.3934002 Z M17.4947451,12.8571185 C17.4947451,15.5955617 15.2541122,17.8234956 12.499951,17.8234956 C9.74574069,17.8234956 7.50515685,15.5954155 7.50515685,12.8571185 C7.50515685,10.1186753 9.74578971,7.89074139 12.499951,7.89074139 C15.2543573,7.89074139 17.4947451,10.1189677 17.4947451,12.8571185 Z M1.72855053,12.8573134 C2.55614695,12.0020617 4.55163323,10.1563031 7.35285323,8.9716622 C5.5949155,11.2684179 5.59422923,14.4439182 7.3520199,16.7415025 C5.22217113,15.8439439 3.2436456,14.4258842 1.72855053,12.8573134 Z M17.6471468,16.7425748 C19.4050845,14.4457704 19.4057218,11.2703187 17.6479801,8.9727345 C19.7777308,9.87029308 21.7563054,11.2884015 23.2714495,12.8568748 C22.4438531,13.712224 20.4483668,15.5578852 17.6471468,16.7425748 Z" id="Shape"></path>
                    <path d="M10,12.5 C10,13.8785294 11.1214706,15 12.5,15 C13.8784804,15 15,13.8785294 15,12.5 C15,11.1214706 13.8784804,10 12.5,10 C11.1214706,10 10,11.1214706 10,12.5 Z M13.5294118,12.5 C13.5294118,13.0676471 13.067598,13.5294118 12.5,13.5294118 C11.9323529,13.5294118 11.4705882,13.0676471 11.4705882,12.5 C11.4705882,11.9323529 11.9323529,11.4705882 12.5,11.4705882 C13.067598,11.4705882 13.5294118,11.9323529 13.5294118,12.5 Z" id="Shape"></path>
                    <path d="M17.6307374,21.0470482 C17.454734,20.7307179 17.0617712,20.6206593 16.7532506,20.8009549 C16.4446442,20.9813383 16.3371723,21.3839924 16.5131757,21.7002788 L17.3692626,23.2386365 C17.5452231,23.5549229 17.9380573,23.6651132 18.2467494,23.4847298 C18.5553558,23.3043464 18.6628277,22.9016922 18.4868243,22.5854059 L17.6307374,21.0470482 Z" id="Path"></path>
                    <path d="M8.24673327,20.8009766 C7.93812962,20.6206357 7.54529895,20.730739 7.3692542,21.0470277 L6.51317496,22.585397 C6.33717309,22.9016857 6.44464402,23.3043428 6.75324767,23.4847276 C7.06189422,23.6651124 7.45472489,23.5549212 7.63072675,23.2386765 L8.48680599,21.7003072 C8.66285074,21.3840185 8.55533693,20.9813613 8.24673327,20.8009766 L8.24673327,20.8009766 Z" id="Path"></path>
                    <path d="M12.8571429,22.1428571 C12.4626667,22.1428571 12.1428571,22.4380659 12.1428571,22.8021978 L12.1428571,24.3406593 C12.1428571,24.7047912 12.4626667,25 12.8571429,25 C13.251619,25 13.5714286,24.7047912 13.5714286,24.3406593 L13.5714286,22.8021978 C13.5714286,22.4380659 13.251619,22.1428571 12.8571429,22.1428571 Z" id="Path"></path>
                    <path d="M7.36926256,3.95295611 C7.54526599,4.26924162 7.93810015,4.37938774 8.24674944,4.19900478 C8.55535584,4.01862183 8.66282772,3.61596875 8.48682429,3.29968325 L7.63073744,1.76132961 C7.45473401,1.4450441 7.06181408,1.33489798 6.75325056,1.51528093 C6.44464416,1.69566388 6.33717228,2.09831696 6.51317571,2.41460247 L7.36926256,3.95295611 Z" id="Path"></path>
                    <path d="M16.7532492,4.19901824 C17.0616827,4.37931079 17.4546438,4.26938595 17.6307323,3.95292902 L18.4868154,2.41459671 C18.6628181,2.09831559 18.5553896,1.69571205 18.2467416,1.51528765 C17.9380508,1.3349072 17.5453041,1.44500784 17.3692585,1.76137686 L16.5131753,3.29970917 C16.3371727,3.61594634 16.4446441,4.01859384 16.7532492,4.19901824 Z" id="Path"></path>
                    <path d="M12.8571429,2.85714286 C13.251619,2.85714286 13.5714286,2.56193407 13.5714286,2.1978022 L13.5714286,0.659340659 C13.5714286,0.295208791 13.251619,0 12.8571429,0 C12.4626667,0 12.1428571,0.295208791 12.1428571,0.659340659 L12.1428571,2.1978022 C12.1428571,2.56193407 12.4626667,2.85714286 12.8571429,2.85714286 Z" id="Path"></path>
                </g>
            </g>
        </g>
    </g>
</svg>