<?xml version="1.0" encoding="UTF-8"?>
<svg width="25px" height="21px" viewBox="0 0 25 21" version="1.1" xmlns="http://www.w3.org/2000/svg" xmlns:xlink="http://www.w3.org/1999/xlink">
    <title>959711</title>
    <g id="Page-1" stroke="none" stroke-width="1" fill="none" fill-rule="evenodd">
        <g id="Desktop-HD" transform="translate(-344.000000, -509.000000)" fill="#FFFFFF" fill-rule="nonzero">
            <g id="wind-group" transform="translate(321.000000, 497.000000)">
                <g id="959711" transform="translate(23.000000, 12.000000)">
                    <path d="M20.1086957,1 C17.411413,1 15.2173913,3.24333333 15.2173913,6 C15.2173913,6.30666667 15.4603261,6.55555556 15.7608696,6.55555556 C16.061413,6.55555556 16.3043478,6.30666667 16.3043478,6 C16.3043478,3.85555556 18.011413,2.11111111 20.1086957,2.11111111 C22.2059783,2.11111111 23.9130435,3.85555556 23.9130435,6 C23.9130435,8.14444444 22.2059783,9.88888889 20.1086957,9.88888889 L0.543478261,9.88888889 C0.243478261,9.88888889 0,10.1377778 0,10.4444444 C0,10.7511111 0.243478261,11 0.543478261,11 L20.1086957,11 C22.8059783,11 25,8.75666667 25,6 C25,3.24333333 22.8059783,1 20.1086957,1 Z" id="Path"></path>
                    <path d="M10.08,-5.68434189e-14 C7.9184,-5.68434189e-14 6.16,1.79428571 6.16,4 C6.16,4.31542857 6.41088,4.57142857 6.72,4.57142857 C7.02912,4.57142857 7.28,4.31542857 7.28,4 C7.28,2.42457143 8.53608,1.14285714 10.08,1.14285714 C11.62392,1.14285714 12.88,2.42457143 12.88,4 C12.88,5.57542857 11.62392,6.85714286 10.08,6.85714286 L0.56,6.85714286 C0.25088,6.85714286 0,7.11314286 0,7.42857143 C0,7.744 0.25088,8 0.56,8 L10.08,8 C12.2416,8 14,6.20571429 14,4 C14,1.79428571 12.2416,-5.68434189e-14 10.08,-5.68434189e-14 Z" id="Path"></path>
                    <path d="M19.1666667,13 L0.547619048,13 C0.245333333,13 0,13.256 0,13.5714286 C0,13.8868571 0.245333333,14.1428571 0.547619048,14.1428571 L19.1666667,14.1428571 C20.6764524,14.1428571 21.9047619,15.4245714 21.9047619,17 C21.9047619,18.5754286 20.6764524,19.8571429 19.1666667,19.8571429 C17.656881,19.8571429 16.4285714,18.5754286 16.4285714,17 C16.4285714,16.6845714 16.1837857,16.4285714 15.8809524,16.4285714 C15.578119,16.4285714 15.3333333,16.6845714 15.3333333,17 C15.3333333,19.2057143 17.0534048,21 19.1666667,21 C21.2799286,21 23,19.2057143 23,17 C23,14.7942857 21.2799286,13 19.1666667,13 Z" id="Path"></path>
                </g>
            </g>
        </g>
    </g>
</svg>